<?xml version="1.0" standalone="no"?>
<!DOCTYPE svg PUBLIC "-//W3C//DTD SVG 20010904//EN"
 "http://www.w3.org/TR/2001/REC-SVG-20010904/DTD/svg10.dtd">
<svg version="1.0" xmlns="http://www.w3.org/2000/svg"
 width="500.000000pt" height="500.000000pt" viewBox="0 0 500.000000 500.000000"
 preserveAspectRatio="xMidYMid meet">

<g transform="translate(0.000000,500.000000) scale(0.100000,-0.100000)"
fill="#000000" stroke="none">
<path d="M4311 4143 c-59 -277 -184 -547 -368 -800 -106 -145 -229 -290 -311
-367 -29 -27 -50 -51 -48 -53 2 -3 45 -8 94 -13 103 -9 247 -50 301 -85 97
-62 151 -154 159 -271 8 -133 -30 -237 -124 -330 -50 -50 -77 -68 -145 -95
l-84 -33 -284 -4 c-167 -2 -287 0 -293 6 -5 5 5 23 26 44 l36 36 0 241 c0 133
-2 241 -5 241 -3 0 -38 -22 -78 -48 -40 -27 -80 -51 -89 -55 -9 -3 -35 -17
-57 -32 l-41 -25 0 -168 c1 -131 4 -171 15 -186 32 -43 23 -46 -130 -46 -90 0
-145 4 -145 10 0 6 9 27 20 47 16 30 20 57 20 135 0 66 -4 98 -11 98 -28 0
-153 -57 -165 -75 -7 -11 -20 -47 -28 -81 -9 -34 -23 -78 -31 -98 l-16 -37
-57 3 -57 3 -43 88 -42 88 -83 -5 -82 -4 -3 -51 c-2 -34 2 -58 12 -73 32 -46
26 -48 -129 -48 -80 0 -145 4 -145 9 0 5 9 28 20 52 11 24 20 56 20 72 0 33
-12 34 -143 13 -74 -12 -94 -20 -124 -47 -87 -76 -249 -116 -413 -104 -167 13
-185 11 -354 -45 -309 -102 -558 -256 -686 -426 l-40 -53 35 -82 c41 -97 112
-223 204 -364 226 -343 556 -640 934 -840 223 -118 485 -202 777 -249 19 -3
110 -13 203 -21 219 -21 413 -6 697 51 188 38 475 140 615 219 22 12 67 37
100 56 55 30 124 75 215 139 72 51 257 211 321 277 67 69 201 227 232 273 171
253 245 393 330 620 151 409 186 887 97 1360 -36 192 -126 448 -217 620 -31
58 -62 116 -69 130 -28 54 -164 245 -243 340 -45 55 -84 100 -85 100 -2 0 -8
-26 -15 -57z"/>
<path d="M3540 2850 l-35 -5 -3 -348 -2 -347 26 -10 c14 -6 59 -10 101 -10 63
0 84 4 124 26 57 31 112 105 135 180 21 67 20 264 -1 323 -22 64 -81 135 -131
160 -47 24 -156 39 -214 31z"/>
<path d="M1356 2167 c-97 -20 -104 -28 -39 -41 41 -9 100 7 138 39 36 29 31
29 -99 2z"/>
</g>
</svg>
